<svg width="249" height="357" viewBox="0 0 249 357" fill="none" xmlns="http://www.w3.org/2000/svg">
<path d="M68.2403 266.32C68.2403 256.7 68.1703 247.62 68.2403 238.55C68.2403 236.18 67.7203 234.78 65.4403 233.55C43.2403 221.36 26.0003 204.16 14.2003 181.65C2.26394 159.3 -2.32674 133.757 1.08028 108.65C5.62028 74.0699 21.9403 46.0699 49.6703 25.0499C74.4903 6.22993 102.77 -2.32007 133.86 0.539925C180.47 4.82993 214.65 28.3499 235.86 69.8799C258.77 114.8 250 171.69 215.57 208.29C206.985 217.554 197.054 225.473 186.11 231.78C185.117 232.236 184.292 232.993 183.753 233.945C183.215 234.896 182.99 235.993 183.11 237.08C183.25 245.81 183.11 245.72 174.5 247.26C142.94 252.9 111.384 258.567 79.8303 264.26C76.1403 265 72.4703 265.58 68.2403 266.32ZM154.47 225.42C159.74 225.42 164.64 225.62 169.52 225.33C172.135 225.216 174.7 224.573 177.06 223.44C189.562 217.014 200.644 208.142 209.65 197.35C232.78 169.76 241.21 138.06 234.74 102.75C230.24 78.2299 218.33 57.4399 199.74 40.8099C174.56 18.3599 145 8.71993 111.51 12.4299C80.7403 15.8399 55.4403 30.0599 36.1903 54.2799C15.8303 79.8899 8.00028 109.32 13.0803 141.59C18.0103 173.1 34.0803 198.17 60.1703 216.59C64.9403 219.95 70.0203 223.96 75.4703 225.02C82.9403 226.47 90.9003 225.38 98.9903 225.38C98.4803 223.99 98.1303 223 97.7603 222.02C87.7603 195.9 77.7603 169.777 67.7603 143.65C64.9803 136.37 62.2603 129.07 59.6003 121.75C59.1426 120.702 59.1089 119.518 59.5061 118.446C59.9032 117.373 60.7005 116.497 61.7303 116C63.5203 115.18 66.9303 114.7 67.8203 115.7C70.8203 118.99 74.3203 117.91 77.8203 118.28C81.6503 118.7 84.2203 117.28 86.5503 114.28C89.3103 110.83 92.4603 107.7 95.5503 104.28L107.13 120.53C109.5 116.05 111.67 111.98 113.83 107.91L115.32 107.06L125.32 118.7L134.77 107.43L144.06 120.65C147.06 112.02 153.21 113.89 159.15 114.92C159.995 115.076 160.852 115.153 161.71 115.15C162.446 115.185 163.18 115.045 163.85 114.74C164.865 114.025 166.089 113.67 167.329 113.732C168.568 113.793 169.752 114.268 170.69 115.08C172.79 116.74 173.08 119.02 172.69 121.46C167.91 148.833 163.124 176.207 158.33 203.58C157.05 210.7 155.8 217.84 154.47 225.42ZM116.41 225C115.72 224.192 115.089 223.337 114.52 222.44C111.76 217.44 108.75 212.5 106.45 207.27C105.02 204 105.63 200.39 107.34 197.03C107.884 195.764 107.955 194.344 107.54 193.03C105.41 186.18 104.26 179.36 106.6 172.29C107.064 170.878 107.028 169.349 106.5 167.96C104.241 162.862 103.148 157.324 103.3 151.75C103.258 151.264 103.315 150.774 103.468 150.311C103.621 149.848 103.867 149.421 104.191 149.056C104.515 148.691 104.91 148.395 105.352 148.188C105.793 147.981 106.273 147.866 106.76 147.85C109.04 147.58 110.35 148.96 110.76 151.11C110.98 152.11 110.9 153.24 111.07 154.29C111.52 157.02 111.91 159.78 112.57 162.46C113.07 164.52 114.17 165.39 116.74 164.96C124.59 163.64 131.74 165.96 138.28 170.27C140.36 171.65 142.18 173.52 141.79 176.32C141.4 179.12 139.08 180.74 136.48 181.19C133.16 181.77 129.62 182.44 126.38 181.88C121.97 181.13 117.75 179.26 112.79 177.66C113.23 181.03 113.69 184.54 114.14 188.05C114.45 190.49 115.59 191.05 118.08 190.52C125.324 188.926 132.845 189.094 140.01 191.01C143.15 191.85 145.86 193.58 146.24 197.14C146.6 200.54 144.4 202.68 141.7 204.29C136.607 207.385 130.503 208.358 124.7 207C120.89 206.15 117.3 204.34 113.23 202.82C113.73 204.57 113.84 206.53 114.78 207.93C118.51 213.5 122.48 218.93 126.44 224.3C126.72 224.602 127.057 224.845 127.431 225.017C127.805 225.189 128.209 225.285 128.62 225.3C133.2 225.39 137.79 225.3 142.62 225.3L159.82 126.96C155.47 125.07 152.67 126.35 150.14 129.71C147.86 132.71 144.95 135.31 142.14 138.25L133.9 126.58L125.75 136.4L117.39 126.07L108.59 142.66L94.3903 122.76C93.1109 123.941 91.9272 125.222 90.8503 126.59C89.1103 129.24 86.7303 129.87 83.7503 129.67C80.9503 129.48 78.1203 129.67 75.0103 129.67C75.4503 131.09 75.6503 131.91 75.9503 132.67C87.3603 162.36 98.8303 192.02 110.1 221.76C111.38 225.16 113 226.2 116.41 225ZM136 197.73H122.37C126.93 200.19 131.49 200.43 136 197.73Z" fill="#0D2B4B"/>
<path d="M159.16 356.38H92.4501C92.4501 350.51 92.2502 344.65 92.5302 338.83C92.7002 335.46 91.7902 333.33 88.7802 331.58C86.1602 330.06 84.0202 327.72 80.9102 325.12L181.34 307C178.82 311.71 177.24 316.1 174.45 319.51C170.51 324.33 165.61 328.37 161.26 332.86C160.186 333.878 159.482 335.226 159.26 336.69C159.05 343.21 159.16 349.71 159.16 356.38Z" fill="#0D2B4B"/>
<path d="M68.5303 276.9L182.9 256.33V270.86L68.5303 291.5V276.9Z" fill="#0D2B4B"/>
<path d="M183 281.48V296C173.7 297.71 164.5 299.42 155.28 301.09C129.42 305.76 103.56 310.38 77.7104 315.09C75.3103 315.53 73.9304 315.28 73.1104 312.78C71.9504 309.26 70.5304 305.83 69.1104 301.98L183 281.48Z" fill="#0D2B4B"/>
</svg>
