<?xml version="1.0" encoding="utf-8"?>
<!-- Generator: Adobe Illustrator 24.0.2, SVG Export Plug-In . SVG Version: 6.00 Build 0)  -->
<svg version="1.1" id="Capa_1" xmlns="http://www.w3.org/2000/svg" xmlns:xlink="http://www.w3.org/1999/xlink" x="0px" y="0px"
	 viewBox="0 0 1920 1080" style="enable-background:new 0 0 1920 1080;" xml:space="preserve">
<style type="text/css">
	.st0{fill:#35BDCA;}
	.st1{fill:#FFFFFF;}
</style>
<g>
	<path class="st0" d="M1657.2,698.52c0-23.35,0-45.86,0-68.96c8.18,0,16.05,0,24.33,0c0,59.08,0,117.96,0,177.32
		c-8.12,0-15.82,0-23.9,0c-0.25-2.3-0.48-4.42-0.83-7.58c-14.19,8.49-29.03,12.64-45.34,9.24c-16.46-3.43-29.36-12.07-37.85-26.48
		c-14.46-24.54-11.18-56.78,7.42-76.46C1595.29,690.52,1623.66,678.54,1657.2,698.52z M1589.43,749.08
		c-0.02,20.97,14.02,38.57,32.13,40.28c24.93,2.35,42.28-16,40.62-42.97c-1.44-23.35-14.91-37.96-35.24-38.22
		C1605.16,707.89,1589.45,725.02,1589.43,749.08z"/>
	<path class="st0" d="M1396.12,653.95c-5.61,5.78-10.86,11.18-16.59,17.08c-14.32-17.48-33.17-23.74-54.81-21.92
		c-17.75,1.49-31.86,10.28-42.89,24.04c-24.4,30.43-19.14,77.55,11.65,102.01c27.45,21.8,69.75,13.67,84.74-8.09
		c5.45,5.47,11.01,11.06,16.69,16.77c-22.42,27.97-84,40.01-126.08,2.01c-37.41-33.78-38.52-97.91-1.6-133.51
		C1302.91,617.93,1366.63,618.63,1396.12,653.95z"/>
	<path class="st0" d="M1825.48,757.52c-30.18,0-60.46,0-90.65,0c-1.61,11.41,5.11,22.06,17.3,28.12c12,5.98,31.57,7.31,47.79-11.14
		c5.49,4.97,10.97,9.94,16.39,14.85c-14.11,20.75-52.12,27-77.99,13.33c-26.42-13.96-37.55-48.39-25.58-79.2
		c11.38-29.31,41.11-42.02,76.29-32.6C1813.35,697.39,1829.82,727.15,1825.48,757.52z M1799.95,737.21
		c0.41-10.2-3.39-17.97-11.66-23.1c-12.89-8.01-26.4-8.37-39.67-1.02c-9.11,5.05-14.13,12.94-14.27,24.13
		C1756.46,737.21,1777.9,737.21,1799.95,737.21z"/>
	<path class="st0" d="M1542.79,748.72c0.6,33.66-25.79,60.62-59.82,61.1c-34.01,0.48-61.56-25.58-62.26-58.91
		c-0.73-34.94,25.74-62.59,60.42-63.1C1515.55,687.31,1542.17,713.6,1542.79,748.72z M1445.38,749.27c0.1,1.71,0.14,3.91,0.37,6.09
		c1.71,15.97,12.91,29.43,27.68,33.35c13.21,3.5,28.31-2.1,36.89-13.68c10.53-14.22,10.79-36.99,0.51-51.62
		c-6.06-8.62-14.22-14.03-24.83-14.95C1462.72,706.45,1445.52,723.62,1445.38,749.27z"/>
	<g>
		<path class="st1" d="M606.84,806.98c-8.62,0-16.84,0-25.6,0c0-43.58,0-86.83,0-130.09c-0.52-0.22-1.04-0.44-1.56-0.66
			c-1.15,2.07-2.36,4.11-3.44,6.21c-20.46,39.77-41.09,79.46-61.17,119.43c-3.02,6-7.17,5.15-11.96,5.58
			c-5.04,0.45-7.21-1.9-9.35-6.1c-20.6-40.51-41.42-80.9-62.19-121.32c-0.65-1.27-1.39-2.51-3.12-5.6c0,45.24,0,88.54,0,132.38
			c-9.21,0-17.58,0-26.36,0c0-59.14,0-118.03,0-177.8c9.85,0,19.58-0.33,29.24,0.28c1.95,0.12,4.2,3.52,5.41,5.88
			c21.39,41.48,42.64,83.03,63.94,124.55c0.98,1.9,2.08,3.74,3.68,6.59c1.58-2.8,2.81-4.79,3.87-6.87
			c21.39-41.77,42.82-83.52,64.06-125.36c1.94-3.82,4.09-5.38,8.4-5.22c8.53,0.33,17.08,0.1,26.15,0.1
			C606.84,688.31,606.84,747.18,606.84,806.98z"/>
		<path class="st1" d="M196.96,672.53c0-14.54-0.1-28.26,0.07-41.98c0.05-3.58-0.79-5.69-4.23-7.58
			c-33.62-18.4-59.74-44.39-77.51-78.42c-18.09-34.64-24.91-71.48-19.83-110.3c6.85-52.32,31.53-94.64,73.44-126.41
			c37.52-28.44,80.26-41.37,127.27-37.05c70.44,6.48,122.11,42.04,154.15,104.81c34.65,67.89,21.41,153.88-30.64,209.2
			c-13.18,14-27.85,26.02-44.54,35.51c-3.37,1.92-4.65,4.08-4.58,8c0.22,13.19,0.04,13.06-13.01,15.39
			c-47.71,8.53-95.4,17.16-143.09,25.74C208.91,670.46,203.36,671.41,196.96,672.53z M327.3,610.71c7.97,0,15.38,0.31,22.76-0.13
			c3.86-0.23,7.98-1.11,11.39-2.86c19.05-9.8,35.5-23.01,49.27-39.43c34.97-41.71,47.71-89.61,37.92-142.99
			c-6.8-37.07-24.79-68.49-52.95-93.63c-38-33.93-82.72-48.51-133.31-42.89c-46.51,5.16-84.76,26.64-113.85,63.25
			c-30.77,38.72-42.56,83.2-34.93,131.97c7.45,47.63,31.71,85.52,71.18,113.34c7.21,5.08,14.88,11.15,23.12,12.75
			c11.3,2.19,23.33,0.55,35.56,0.55c-0.77-2.1-1.3-3.6-1.87-5.08c-15.12-39.49-30.27-78.96-45.37-118.46
			c-4.2-11-8.31-22.04-12.35-33.1c-1.36-3.71,0.1-7.28,3.25-8.72c2.71-1.24,7.86-1.96,9.22-0.46c4.49,4.98,9.83,3.34,15.05,3.91
			c5.79,0.63,9.68-1.59,13.2-5.99c4.17-5.21,8.94-9.95,13.67-15.14c6.01,8.44,11.57,16.24,17.49,24.56
			c3.59-6.77,6.86-12.92,10.13-19.07c0.75-0.43,1.5-0.86,2.25-1.29c5,5.82,10,11.64,15.12,17.6c5.04-6.01,9.54-11.38,14.28-17.04
			c4.63,6.59,8.86,12.61,14.04,19.98c4.5-13.04,13.84-10.21,22.81-8.66c1.27,0.22,2.58,0.38,3.86,0.35
			c1.09-0.02,2.34-0.09,3.23-0.61c3.62-2.12,7.05-2.12,10.35,0.5c3.16,2.51,3.61,5.96,2.96,9.64
			c-7.22,41.38-14.46,82.75-21.7,124.13C331.21,588.46,329.31,599.25,327.3,610.71z M269.79,610.09c-1.02-1.35-2.12-2.51-2.87-3.87
			c-4.17-7.59-8.72-15.03-12.19-22.94c-2.17-4.95-1.25-10.39,1.34-15.47c0.84-1.65,0.87-4.18,0.3-6
			c-3.23-10.35-4.96-20.66-1.43-31.35c0.66-1.98,0.7-4.72-0.15-6.55c-3.65-7.82-4.83-16.02-4.84-24.5c0-3.53,1.98-5.5,5.23-5.88
			c3.45-0.41,5.44,1.67,6.11,4.92c0.32,1.57,0.2,3.23,0.46,4.81c0.68,4.13,1.28,8.29,2.27,12.35c0.76,3.11,2.42,4.43,6.3,3.77
			c11.87-2,22.7,1.49,32.56,8.03c3.13,2.08,5.89,4.91,5.29,9.14c-0.63,4.45-4.09,6.69-8.02,7.37c-5.02,0.87-10.36,1.88-15.27,1.04
			c-6.67-1.14-13.04-3.96-20.54-6.38c0.66,5.09,1.35,10.39,2.03,15.69c0.47,3.7,2.19,4.54,5.97,3.74
			c11.05-2.34,22.19-2.22,33.15,0.73c4.74,1.28,8.83,3.89,9.41,9.27c0.55,5.14-2.79,8.37-6.86,10.8c-8.01,4.78-16.78,6.08-25.7,4.1
			c-5.75-1.28-11.18-4.02-17.34-6.32c0.76,2.65,0.92,5.62,2.35,7.74c5.64,8.41,11.63,16.58,17.63,24.74
			c0.64,0.87,2.16,1.52,3.28,1.55c6.93,0.14,13.87,0.07,21.15,0.07c8.72-49.86,17.39-99.39,26-148.64
			c-6.58-2.87-10.8-0.93-14.63,4.15c-3.46,4.58-7.85,8.46-12.08,12.91c-4.27-6.05-8.29-11.74-12.46-17.64
			c-4.07,4.9-7.73,9.31-12.33,14.84c-4.3-5.31-8.17-10.09-12.64-15.61c-4.86,9.15-8.9,16.77-13.31,25.07
			c-7.34-10.29-14.3-20.04-21.46-30.08c-2.12,2.25-4.05,3.81-5.35,5.79c-2.63,4-6.23,4.96-10.73,4.66
			c-4.24-0.29-8.51-0.06-13.21-0.06c0.66,2.15,0.97,3.39,1.42,4.57c17.24,44.88,34.58,89.72,51.62,134.67
			C262.18,610.32,264.6,611.89,269.79,610.09z M299.44,568.86c-6.88,0-13.77,0-20.65,0C285.68,572.58,292.57,572.94,299.44,568.86z"
			/>
		<path class="st1" d="M334.4,808.66c-33.76,0-66.98,0-100.83,0c0-8.88-0.32-17.72,0.12-26.53c0.25-5.09-1.12-8.31-5.67-10.95
			c-3.96-2.3-7.21-5.83-11.9-9.76c50.89-9.17,100.42-18.09,151.79-27.35c-3.81,7.12-6.19,13.76-10.4,18.91
			c-5.96,7.29-13.36,13.39-19.95,20.19c-1.47,1.52-2.96,3.81-3.03,5.79C334.23,788.76,334.4,798.58,334.4,808.66z"/>
		<path class="st1" d="M197.41,688.52c57.52-10.34,114.99-20.68,172.86-31.09c0,7.35,0,14.48,0,21.97
			c-57.5,10.38-114.92,20.74-172.86,31.19C197.41,703.17,197.41,696.18,197.41,688.52z"/>
		<path class="st1" d="M370.43,695.45c0,7.65,0,14.57,0,21.95c-14.05,2.58-27.96,5.17-41.89,7.69
			c-39.08,7.06-78.18,14.04-117.24,21.23c-3.63,0.67-5.73,0.28-6.96-3.49c-1.75-5.32-3.89-10.51-6.08-16.33
			C256.02,716.08,313.03,705.8,370.43,695.45z"/>
		<path class="st1" d="M756.42,757.49c-30.12,0-60.35,0-90.45,0c-1.66,11.23,4.43,21.3,16.04,27.46
			c16.2,8.59,31.39,5.58,49.05-10.14c5.33,4.7,10.73,9.46,16.08,14.19c-12.57,20.56-49.9,27.4-76.58,14.35
			c-27.09-13.26-39.02-48.62-26.97-79.91c11.18-29.03,41.85-42.01,76.33-32.66C748.12,698.44,759.71,731.84,756.42,757.49z
			 M730.62,737.17c1.48-15.94-11.78-28.25-30.6-29.04c-21.57-0.9-36.06,14.88-34.28,29.04
			C687.34,737.17,708.99,737.17,730.62,737.17z"/>
		<path class="st1" d="M1069.45,809.82c-33.51-0.14-60.64-26.89-60.6-59.78c0.04-35.39,26.42-62.24,61.16-62.24
			c34.54,0,61.07,27.15,61.03,62.47C1131,783.41,1103.54,809.96,1069.45,809.82z M1106.38,749.61c0.47-21.4-13.31-39.31-31.67-41.15
			c-24.04-2.41-42.66,16.46-41.31,41.86c1.14,21.54,14.27,37.32,32.46,39.03C1088.56,791.48,1105.83,774.54,1106.38,749.61z"/>
		<path class="st1" d="M805.51,807c-8.52,0-16,0-23.93,0c0-38.91,0-77.47,0-116.63c7.64,0,15.28,0,23.55,0
			c0.24,4.86,0.48,9.58,0.78,15.69c13.11-16.11,29.19-20.7,47.78-17.29c21.31,3.9,33.75,16.23,34.82,38.11
			c1.29,26.31,0.31,52.73,0.31,79.79c-7,0-14.67,0-23.55,0c0-2.38,0.01-4.94,0-7.5c-0.07-20.55,0.11-41.11-0.28-61.65
			c-0.39-20.66-8.06-29-26.29-29.64c-18.21-0.64-31.23,10.1-32.32,28.62c-1.15,19.51-0.65,39.12-0.86,58.68
			C805.48,798.82,805.51,802.46,805.51,807z"/>
		<path class="st1" d="M929.04,709.95c-4.37,0-8.49,0-13.2,0c0-6.58,0-12.78,0-19.75c4.29-0.25,8.6-0.51,13.62-0.8
			c0-11.93,0-23.83,0-36.22c8.39,0,16.08,0,24.65,0c0,11.88,0,23.75,0,36.47c10.5,0,20.15,0,30.23,0c0,7.09,0,13.3,0,20.28
			c-10.04,0-19.72,0-29.42,0c0,20.77-0.89,40.83,0.29,60.77c0.87,14.6,12.06,20.62,29.56,17.39c0,5.15,0.57,10.26-0.27,15.12
			c-0.36,2.07-3.41,4.75-5.65,5.24c-19.93,4.42-41.29-3.36-47.49-28.75c-1.6-6.55-1.5-13.59-1.6-20.41
			c-0.23-15.67-0.11-31.34-0.15-47.01C929.61,711.83,929.4,711.37,929.04,709.95z"/>
		<path class="st1" d="M1157.81,690.1c7.92,0,15.2,0,23.43,0c0.29,3.85,0.58,7.82,0.77,10.29c6.97-3.8,13.75-9.29,21.41-11.17
			c7.57-1.86,16.03-0.08,25.14,0.12c-2.34,8.31-4.02,14.32-5.7,20.26c-24.97-3.64-38.53,6.82-40.2,32.13
			c-1.2,18.28-0.67,36.67-0.9,55.02c-0.04,3.15-0.01,6.29-0.01,10.03c-8.27,0-15.9,0-23.95,0
			C1157.81,768.02,1157.81,729.45,1157.81,690.1z"/>
	</g>
</g>
</svg>
