<svg width="472" height="175" viewBox="0 0 472 175" fill="none" xmlns="http://www.w3.org/2000/svg">
<rect width="472" height="175" rx="87.5" fill="#FCFCFD"/>
<path d="M406.239 82.121C406.239 76.804 406.239 71.6744 406.239 66.4158C408.1 66.4158 409.895 66.4158 411.781 66.4158C411.781 79.8726 411.781 93.2837 411.781 106.803C409.932 106.803 408.175 106.803 406.335 106.803C406.277 106.278 406.222 105.795 406.147 105.079C402.917 107.011 399.536 107.956 395.822 107.186C392.074 106.403 389.135 104.438 387.203 101.153C383.91 95.5654 384.659 88.2207 388.893 83.7407C392.141 80.3015 398.599 77.5702 406.239 82.121ZM390.809 93.6376C390.805 98.4133 394.002 102.423 398.128 102.81C403.808 103.347 407.759 99.1669 407.38 93.0256C407.051 87.7045 403.982 84.3777 399.352 84.3194C394.389 84.257 390.813 88.1583 390.809 93.6376Z" fill="#35BDCA"/>
<path d="M346.784 71.9709C345.505 73.2866 344.311 74.5191 343.003 75.8598C339.743 71.8793 335.45 70.4554 330.521 70.8676C326.478 71.209 323.263 73.2075 320.753 76.3427C315.194 83.2752 316.393 94.0049 323.405 99.5758C329.655 104.543 339.293 102.69 342.703 97.7355C343.944 98.9804 345.21 100.255 346.505 101.554C341.396 107.924 327.373 110.668 317.788 102.012C309.269 94.3172 309.015 79.7111 317.422 71.6045C325.553 63.7686 340.068 63.9268 346.784 71.9709Z" fill="#35BDCA"/>
<path d="M444.572 95.5613C437.698 95.5613 430.799 95.5613 423.925 95.5613C423.558 98.1594 425.09 100.587 427.863 101.965C430.595 103.326 435.054 103.63 438.747 99.4293C439.996 100.562 441.245 101.694 442.482 102.814C439.268 107.54 430.611 108.964 424.72 105.85C418.703 102.673 416.168 94.8285 418.895 87.8086C421.489 81.1301 428.259 78.2364 436.27 80.3848C441.807 81.8629 445.559 88.6413 444.572 95.5613ZM438.755 90.9355C438.847 88.6121 437.981 86.8426 436.099 85.6726C433.164 83.8489 430.087 83.7657 427.064 85.4395C424.99 86.5886 423.845 88.3873 423.812 90.9355C428.85 90.9355 433.734 90.9355 438.755 90.9355Z" fill="#35BDCA"/>
<path d="M380.184 93.5552C380.322 101.22 374.309 107.362 366.561 107.47C358.812 107.583 352.538 101.645 352.379 94.0549C352.213 86.0982 358.242 79.7986 366.14 79.682C373.98 79.5696 380.043 85.5569 380.184 93.5552ZM357.996 93.6801C358.017 94.0673 358.029 94.5712 358.079 95.0666C358.471 98.7056 361.019 101.77 364.383 102.661C367.393 103.461 370.833 102.182 372.785 99.5425C375.184 96.3032 375.242 91.1153 372.902 87.7844C371.524 85.8233 369.663 84.5909 367.248 84.3786C361.947 83.9289 358.029 87.8385 357.996 93.6801Z" fill="#35BDCA"/>
<path d="M167.017 106.825C165.051 106.825 163.182 106.825 161.183 106.825C161.183 96.8986 161.183 87.0474 161.183 77.1963C161.067 77.1463 160.946 77.0963 160.829 77.0464C160.567 77.5169 160.292 77.9832 160.047 78.462C155.387 87.5221 150.687 96.5613 146.115 105.663C145.428 107.029 144.483 106.837 143.392 106.933C142.243 107.037 141.747 106.5 141.264 105.546C136.572 96.3198 131.83 87.1224 127.1 77.9124C126.95 77.621 126.783 77.342 126.388 76.6383C126.388 86.9392 126.388 96.8028 126.388 106.787C124.289 106.787 122.382 106.787 120.384 106.787C120.384 93.3179 120.384 79.9026 120.384 66.2917C122.628 66.2917 124.843 66.2168 127.046 66.3542C127.487 66.3833 128.003 67.1577 128.278 67.6907C133.149 77.138 137.992 86.6019 142.842 96.0575C143.063 96.4906 143.317 96.9111 143.679 97.5564C144.042 96.9194 144.321 96.4656 144.562 95.9909C149.433 86.477 154.313 76.9714 159.151 67.4367C159.593 66.5665 160.084 66.2084 161.067 66.2501C163.011 66.325 164.956 66.2709 167.021 66.2709C167.017 79.7985 167.017 93.2054 167.017 106.825Z" fill="#444444"/>
<path d="M50.7623 117.841C50.7623 114.531 50.7373 111.404 50.779 108.282C50.7873 107.466 50.5999 106.987 49.813 106.554C42.1561 102.361 36.2062 96.4444 32.1592 88.6917C28.0372 80.8016 26.4841 72.4119 27.6416 63.5725C29.203 51.6561 34.8239 42.0173 44.367 34.7809C52.9108 28.3023 62.6495 25.3586 73.3542 26.3412C89.3967 27.8151 101.163 35.9176 108.462 50.2114C116.356 65.6751 113.338 85.2609 101.484 97.86C98.4818 101.049 95.1425 103.785 91.3411 105.95C90.575 106.387 90.2836 106.878 90.2961 107.774C90.346 110.78 90.3044 110.746 87.3357 111.279C76.4686 113.22 65.6099 115.185 54.7469 117.142C53.4812 117.367 52.2196 117.583 50.7623 117.841ZM80.4491 103.76C82.2644 103.76 83.9548 103.831 85.6328 103.731C86.5113 103.677 87.4523 103.477 88.2267 103.077C92.5652 100.845 96.3125 97.835 99.4477 94.0961C107.413 84.5947 110.315 73.6859 108.083 61.5281C106.534 53.0843 102.437 45.927 96.0211 40.202C87.3649 32.4743 77.1806 29.1558 65.6598 30.4341C55.0675 31.6082 46.3572 36.5005 39.7287 44.8403C32.7213 53.6588 30.0357 63.789 31.772 74.8976C33.4707 85.748 38.9959 94.3751 47.9852 100.712C49.6298 101.87 51.3744 103.252 53.2522 103.614C55.8253 104.114 58.565 103.739 61.3505 103.739C61.1756 103.26 61.0548 102.919 60.9258 102.582C57.4824 93.5881 54.0308 84.5988 50.5916 75.6012C49.634 73.0947 48.7013 70.5799 47.7812 68.0609C47.473 67.2156 47.8061 66.4037 48.5223 66.0748C49.1385 65.7917 50.3126 65.6293 50.6208 65.9707C51.645 67.1074 52.8608 66.7327 54.0474 66.8617C55.3673 67.0033 56.25 66.4995 57.0536 65.4961C58.0029 64.3094 59.0896 63.231 60.168 62.0486C61.5378 63.968 62.8036 65.7459 64.1526 67.6445C64.9728 66.104 65.7139 64.7008 66.4592 63.3018C66.6299 63.2019 66.8007 63.1061 66.9714 63.0062C68.108 64.3303 69.2489 65.6585 70.4147 67.0158C71.5597 65.646 72.5881 64.4219 73.6665 63.1353C74.7199 64.6384 75.6859 66.0082 76.8642 67.6861C77.8884 64.7175 80.016 65.3587 82.0604 65.7126C82.3518 65.7625 82.6475 65.8 82.9389 65.7917C83.1887 65.7875 83.4719 65.7709 83.6759 65.6543C84.5003 65.1713 85.283 65.1713 86.0325 65.7709C86.7528 66.3413 86.8527 67.1282 86.707 67.9651C85.0624 77.3874 83.4136 86.8139 81.7648 96.2362C81.3401 98.6928 80.9071 101.149 80.4491 103.76ZM67.3503 103.618C67.1171 103.31 66.8673 103.048 66.6966 102.74C65.7473 101.012 64.7105 99.3173 63.9194 97.5144C63.4239 96.3861 63.6363 95.1453 64.2234 93.992C64.4149 93.6173 64.4232 93.0385 64.29 92.6263C63.553 90.2697 63.1616 87.9214 63.9652 85.4857C64.1151 85.036 64.1234 84.4115 63.9319 83.9951C63.1033 82.2131 62.8327 80.3478 62.8285 78.4158C62.8285 77.6122 63.2782 77.1626 64.0193 77.0752C64.8063 76.9836 65.2559 77.454 65.41 78.1952C65.4849 78.5532 65.4558 78.928 65.5141 79.2902C65.6681 80.2312 65.8055 81.1763 66.0304 82.1007C66.2053 82.8085 66.58 83.1082 67.4668 82.9584C70.169 82.5045 72.6381 83.2998 74.8823 84.7862C75.5943 85.2609 76.223 85.9062 76.0897 86.868C75.9482 87.8839 75.1571 88.3919 74.2619 88.546C73.1169 88.7458 71.9011 88.9748 70.7853 88.7833C69.2655 88.5252 67.8124 87.8798 66.1095 87.3302C66.2594 88.4877 66.4176 89.6951 66.5717 90.9026C66.6799 91.7436 67.0713 91.9352 67.929 91.7561C70.448 91.2232 72.9837 91.2523 75.4777 91.9227C76.5561 92.2141 77.4887 92.8095 77.622 94.0336C77.7469 95.2036 76.9891 95.9406 76.0606 96.4943C74.2369 97.5811 72.2384 97.8808 70.2065 97.427C68.895 97.1355 67.6625 96.511 66.2594 95.9864C66.4343 96.5901 66.4717 97.2646 66.7923 97.7476C68.0789 99.6629 69.4404 101.524 70.8061 103.381C70.9518 103.581 71.2974 103.727 71.5555 103.735C73.1336 103.768 74.7157 103.752 76.3729 103.752C78.3589 92.3973 80.3325 81.1139 82.2935 69.897C80.7946 69.2433 79.8328 69.6847 78.9626 70.8422C78.1757 71.8873 77.1764 72.7699 76.2105 73.7817C75.2362 72.4035 74.3244 71.1086 73.375 69.7638C72.4465 70.8796 71.6138 71.8873 70.5687 73.1447C69.5903 71.9372 68.7076 70.8463 67.6917 69.5889C66.5841 71.6707 65.664 73.407 64.6605 75.3014C62.9909 72.9573 61.4046 70.7381 59.7724 68.4522C59.2895 68.9644 58.8481 69.3225 58.5525 69.7721C57.9529 70.684 57.1327 70.9005 56.1084 70.8339C55.1425 70.7672 54.1723 70.8214 53.0981 70.8214C53.248 71.3085 53.3188 71.5916 53.4229 71.8623C57.3492 82.084 61.2963 92.2974 65.181 102.536C65.6182 103.668 66.1678 104.026 67.3503 103.618ZM74.1037 94.2293C72.534 94.2293 70.9685 94.2293 69.3988 94.2293C70.9685 95.0745 72.5381 95.1578 74.1037 94.2293Z" fill="#444444"/>
<path d="M82.0645 148.844C74.3742 148.844 66.8089 148.844 59.102 148.844C59.102 146.821 59.0312 144.81 59.1311 142.803C59.1894 141.641 58.8772 140.908 57.8404 140.309C56.9369 139.784 56.1999 138.98 55.1299 138.085C66.7215 135.995 78.0007 133.963 89.7006 131.856C88.8345 133.476 88.2891 134.992 87.3315 136.162C85.9741 137.823 84.2878 139.209 82.7889 140.758C82.4517 141.104 82.1144 141.624 82.1019 142.078C82.027 144.31 82.0645 146.546 82.0645 148.844Z" fill="#444444"/>
<path d="M50.8672 121.481C63.966 119.124 77.0565 116.772 90.2386 114.403C90.2386 116.076 90.2386 117.7 90.2386 119.407C77.1439 121.772 64.0659 124.129 50.8672 126.51C50.8672 124.82 50.8672 123.225 50.8672 121.481Z" fill="#444444"/>
<path d="M90.2695 123.059C90.2695 124.799 90.2695 126.377 90.2695 128.055C87.0677 128.642 83.8992 129.233 80.7306 129.808C71.8288 131.415 62.9228 133.006 54.0292 134.642C53.2007 134.796 52.726 134.704 52.4429 133.847C52.0473 132.635 51.556 131.452 51.0605 130.128C64.2093 127.755 77.1957 125.415 90.2695 123.059Z" fill="#444444"/>
<path d="M201.083 95.553C194.225 95.553 187.339 95.553 180.481 95.553C180.102 98.1095 181.489 100.404 184.133 101.807C187.822 103.764 191.282 103.077 195.304 99.5002C196.515 100.57 197.748 101.657 198.968 102.731C196.107 107.415 187.601 108.972 181.526 106C175.356 102.981 172.637 94.9243 175.385 87.8003C177.933 81.1885 184.915 78.2323 192.768 80.3641C199.193 82.1045 201.832 89.7115 201.083 95.553ZM195.208 90.9231C195.545 87.2924 192.527 84.4903 188.238 84.3112C183.325 84.1072 180.023 87.7004 180.431 90.9231C185.348 90.9231 190.282 90.9231 195.208 90.9231Z" fill="#444444"/>
<path d="M272.375 107.474C264.743 107.44 258.564 101.349 258.572 93.8586C258.581 85.7978 264.589 79.6855 272.504 79.6855C280.373 79.6855 286.415 85.8685 286.406 93.9127C286.398 101.457 280.14 107.503 272.375 107.474ZM280.785 93.7586C280.894 88.883 277.754 84.8027 273.574 84.3863C268.099 83.8367 263.86 88.1336 264.164 93.921C264.426 98.8258 267.412 102.419 271.559 102.81C276.73 103.293 280.66 99.4378 280.785 93.7586Z" fill="#444444"/>
<path d="M212.266 106.829C210.325 106.829 208.622 106.829 206.815 106.829C206.815 97.9684 206.815 89.1831 206.815 80.2646C208.556 80.2646 210.296 80.2646 212.178 80.2646C212.232 81.3721 212.286 82.4463 212.357 83.837C215.343 80.1688 219.007 79.1237 223.241 79.8982C228.096 80.785 230.927 83.5955 231.173 88.5794C231.468 94.5708 231.243 100.591 231.243 106.754C229.649 106.754 227.904 106.754 225.881 106.754C225.881 106.212 225.881 105.629 225.881 105.047C225.864 100.367 225.906 95.6825 225.818 91.0026C225.731 86.2977 223.982 84.3949 219.831 84.2492C215.684 84.1034 212.715 86.5517 212.47 90.7653C212.207 95.2079 212.32 99.6754 212.274 104.131C212.257 104.967 212.266 105.796 212.266 106.829Z" fill="#444444"/>
<path d="M240.401 84.7277C239.406 84.7277 238.469 84.7277 237.395 84.7277C237.395 83.2287 237.395 81.8173 237.395 80.2309C238.373 80.1726 239.351 80.1143 240.496 80.0477C240.496 77.3289 240.496 74.6225 240.496 71.7996C242.408 71.7996 244.16 71.7996 246.113 71.7996C246.113 74.5059 246.113 77.2081 246.113 80.106C248.503 80.106 250.702 80.106 252.996 80.106C252.996 81.7215 252.996 83.1371 252.996 84.7235C250.71 84.7235 248.503 84.7235 246.292 84.7235C246.292 89.4534 246.088 94.0209 246.359 98.5634C246.555 101.89 249.107 103.26 253.091 102.523C253.091 103.697 253.221 104.859 253.029 105.966C252.95 106.437 252.255 107.049 251.742 107.161C247.204 108.169 242.337 106.395 240.925 100.616C240.559 99.1255 240.584 97.5225 240.563 95.9695C240.509 92.4012 240.538 88.833 240.53 85.2606C240.53 85.1523 240.48 85.0483 240.401 84.7277Z" fill="#444444"/>
<path d="M292.502 80.2022C294.305 80.2022 295.962 80.2022 297.836 80.2022C297.902 81.0766 297.969 81.9843 298.011 82.5464C299.597 81.6803 301.142 80.4312 302.886 80.0024C304.61 79.5777 306.538 79.9816 308.611 80.0315C308.078 81.926 307.695 83.2917 307.312 84.6448C301.625 83.8163 298.535 86.1979 298.156 91.9604C297.882 96.124 298.002 100.313 297.952 104.489C297.944 105.205 297.952 105.921 297.952 106.77C296.07 106.77 294.33 106.77 292.498 106.77C292.502 97.9518 292.502 89.1665 292.502 80.2022Z" fill="#444444"/>
</svg>
